<mxfile host="app.diagrams.net" agent="Mozilla/5.0 (Windows NT 10.0; Win64; x64) AppleWebKit/537.36 (KHTML, like Gecko) Chrome/136.0.0.0 Safari/537.36 Edg/136.0.0.0" version="26.2.13">
  <diagram name="第 1 页" id="A8gfw-hr5cQf_k9Pkr5Y">
    <mxGraphModel dx="1118" dy="682" grid="1" gridSize="10" guides="1" tooltips="1" connect="1" arrows="1" fold="1" page="1" pageScale="1" pageWidth="827" pageHeight="1169" math="0" shadow="0">
      <root>
        <mxCell id="0" />
        <mxCell id="1" parent="0" />
        <mxCell id="sXD7DO24lxWrW15S7Pkw-1" value="" style="rounded=0;whiteSpace=wrap;html=1;fontFamily=Times New Roman;fontSize=27;" parent="1" vertex="1">
          <mxGeometry x="60" y="310" width="224" height="224" as="geometry" />
        </mxCell>
        <mxCell id="sXD7DO24lxWrW15S7Pkw-2" value="" style="rounded=0;whiteSpace=wrap;html=1;fontFamily=Times New Roman;fontSize=27;" parent="1" vertex="1">
          <mxGeometry x="70" y="320" width="224" height="224" as="geometry" />
        </mxCell>
        <mxCell id="sXD7DO24lxWrW15S7Pkw-3" value="输入&lt;br&gt;&lt;div&gt;（224，224，3）&lt;/div&gt;" style="rounded=0;whiteSpace=wrap;html=1;fontSize=23;fontFamily=Times New Roman;" parent="1" vertex="1">
          <mxGeometry x="80" y="330" width="224" height="224" as="geometry" />
        </mxCell>
        <mxCell id="sXD7DO24lxWrW15S7Pkw-4" value="预训练&lt;div&gt;模型&lt;/div&gt;" style="rounded=0;whiteSpace=wrap;html=1;fontSize=23;fontFamily=Times New Roman;" parent="1" vertex="1">
          <mxGeometry x="370" y="367" width="150" height="150" as="geometry" />
        </mxCell>
        <mxCell id="sXD7DO24lxWrW15S7Pkw-5" value="" style="rounded=0;whiteSpace=wrap;html=1;fontFamily=Times New Roman;fontSize=27;" parent="1" vertex="1">
          <mxGeometry x="580" y="252" width="10" height="380" as="geometry" />
        </mxCell>
        <mxCell id="sXD7DO24lxWrW15S7Pkw-6" value="" style="rounded=0;whiteSpace=wrap;html=1;fontFamily=Times New Roman;fontSize=27;" parent="1" vertex="1">
          <mxGeometry x="858" y="314" width="10" height="256" as="geometry" />
        </mxCell>
        <mxCell id="sXD7DO24lxWrW15S7Pkw-9" value="&lt;div&gt;全局平均&lt;/div&gt;&lt;div&gt;池化层&lt;/div&gt;" style="text;html=1;align=center;verticalAlign=middle;whiteSpace=wrap;rounded=0;fontSize=23;fontFamily=Times New Roman;" parent="1" vertex="1">
          <mxGeometry x="512.5" y="200" width="145" height="30" as="geometry" />
        </mxCell>
        <mxCell id="sXD7DO24lxWrW15S7Pkw-11" value="全连接层&lt;br&gt;&lt;div&gt;256&lt;/div&gt;" style="text;html=1;align=center;verticalAlign=middle;whiteSpace=wrap;rounded=0;fontSize=23;fontFamily=Times New Roman;" parent="1" vertex="1">
          <mxGeometry x="799.25" y="260" width="127.5" height="30" as="geometry" />
        </mxCell>
        <mxCell id="sXD7DO24lxWrW15S7Pkw-12" value="" style="rounded=0;whiteSpace=wrap;html=1;fontFamily=Times New Roman;fontSize=27;" parent="1" vertex="1">
          <mxGeometry x="940" y="399" width="10" height="86" as="geometry" />
        </mxCell>
        <mxCell id="sXD7DO24lxWrW15S7Pkw-14" value="输出&lt;br&gt;&lt;div&gt;36&lt;/div&gt;" style="text;html=1;align=center;verticalAlign=middle;whiteSpace=wrap;rounded=0;fontSize=23;fontFamily=Times New Roman;" parent="1" vertex="1">
          <mxGeometry x="902.5" y="348" width="85" height="30" as="geometry" />
        </mxCell>
        <mxCell id="unxIJNK9Pax7AEAtR1sh-1" value="" style="rounded=0;whiteSpace=wrap;html=1;fontFamily=Times New Roman;fontSize=27;" parent="1" vertex="1">
          <mxGeometry x="758" y="378" width="10" height="128" as="geometry" />
        </mxCell>
        <mxCell id="unxIJNK9Pax7AEAtR1sh-2" value="全连接层&lt;br&gt;&lt;div&gt;128&lt;/div&gt;" style="text;html=1;align=center;verticalAlign=middle;whiteSpace=wrap;rounded=0;fontSize=23;fontFamily=Times New Roman;" parent="1" vertex="1">
          <mxGeometry x="699.25" y="330" width="127.5" height="30" as="geometry" />
        </mxCell>
        <mxCell id="Zha8jt2B-QvJhp6QKBeR-2" value="" style="rounded=0;whiteSpace=wrap;html=1;fontFamily=Times New Roman;fontSize=27;" parent="1" vertex="1">
          <mxGeometry x="663" y="347" width="10" height="190" as="geometry" />
        </mxCell>
        <mxCell id="Zha8jt2B-QvJhp6QKBeR-6" value="&lt;div&gt;丢弃层&lt;/div&gt;&lt;div&gt;0.5&lt;/div&gt;" style="text;html=1;align=center;verticalAlign=middle;whiteSpace=wrap;rounded=0;fontSize=23;fontFamily=Times New Roman;" parent="1" vertex="1">
          <mxGeometry x="595.5" y="300" width="145" height="30" as="geometry" />
        </mxCell>
        <mxCell id="Zha8jt2B-QvJhp6QKBeR-7" value="" style="endArrow=classic;html=1;rounded=0;" parent="1" edge="1">
          <mxGeometry width="50" height="50" relative="1" as="geometry">
            <mxPoint x="320" y="441.71" as="sourcePoint" />
            <mxPoint x="360" y="441.71" as="targetPoint" />
          </mxGeometry>
        </mxCell>
        <mxCell id="Zha8jt2B-QvJhp6QKBeR-8" value="" style="endArrow=classic;html=1;rounded=0;" parent="1" edge="1">
          <mxGeometry width="50" height="50" relative="1" as="geometry">
            <mxPoint x="532" y="441.71" as="sourcePoint" />
            <mxPoint x="572" y="441.71" as="targetPoint" />
          </mxGeometry>
        </mxCell>
        <mxCell id="Zha8jt2B-QvJhp6QKBeR-9" value="" style="endArrow=classic;html=1;rounded=0;" parent="1" edge="1">
          <mxGeometry width="50" height="50" relative="1" as="geometry">
            <mxPoint x="610" y="441.71" as="sourcePoint" />
            <mxPoint x="650" y="441.71" as="targetPoint" />
          </mxGeometry>
        </mxCell>
        <mxCell id="Zha8jt2B-QvJhp6QKBeR-10" value="" style="endArrow=classic;html=1;rounded=0;" parent="1" edge="1">
          <mxGeometry width="50" height="50" relative="1" as="geometry">
            <mxPoint x="695.25" y="441.71" as="sourcePoint" />
            <mxPoint x="735.25" y="441.71" as="targetPoint" />
          </mxGeometry>
        </mxCell>
        <mxCell id="Zha8jt2B-QvJhp6QKBeR-11" value="" style="endArrow=classic;html=1;rounded=0;" parent="1" edge="1">
          <mxGeometry width="50" height="50" relative="1" as="geometry">
            <mxPoint x="791.25" y="441.71" as="sourcePoint" />
            <mxPoint x="831.25" y="441.71" as="targetPoint" />
          </mxGeometry>
        </mxCell>
        <mxCell id="Zha8jt2B-QvJhp6QKBeR-12" value="" style="endArrow=classic;html=1;rounded=0;" parent="1" edge="1">
          <mxGeometry width="50" height="50" relative="1" as="geometry">
            <mxPoint x="886.75" y="441.71" as="sourcePoint" />
            <mxPoint x="926.75" y="441.71" as="targetPoint" />
          </mxGeometry>
        </mxCell>
      </root>
    </mxGraphModel>
  </diagram>
</mxfile>
